<?xml version="1.0" standalone="no"?>
<!DOCTYPE svg PUBLIC "-//W3C//DTD SVG 20010904//EN"
 "http://www.w3.org/TR/2001/REC-SVG-20010904/DTD/svg10.dtd">
<svg version="1.0" xmlns="http://www.w3.org/2000/svg"
 width="300.000000pt" height="300.000000pt" viewBox="0 0 300.000000 300.000000"
 preserveAspectRatio="xMidYMid meet">
<metadata>
Created by potrace 1.11, written by Peter Selinger 2001-2013
</metadata>
<g transform="translate(0.000000,300.000000) scale(0.100000,-0.100000)"
fill="#000000" stroke="none">
<path d="M1264 2851 c-272 -48 -506 -168 -710 -363 -207 -200 -333 -430 -396
-722 -30 -143 -30 -379 0 -523 124 -580 571 -1005 1147 -1088 660 -96 1299
306 1498 941 60 191 77 449 43 644 -87 491 -438 899 -913 1061 -198 67 -459
87 -669 50z m491 -26 c337 -71 617 -247 818 -514 178 -237 267 -505 267 -806
0 -279 -72 -515 -226 -748 -196 -293 -515 -503 -871 -573 -120 -24 -366 -24
-486 -1 -559 111 -987 544 -1082 1097 -21 121 -21 336 0 455 68 388 306 729
654 935 130 77 335 147 496 169 99 14 335 6 430 -14z"/>
<path d="M1864 2758 c-8 -13 22 -38 46 -38 9 0 31 -11 50 -25 44 -32 65 -17
29 21 -44 47 -109 69 -125 42z m91 -36 l20 -14 -20 7 c-11 4 -30 10 -42 12
-13 3 -23 10 -23 15 0 12 38 0 65 -20z"/>
<path d="M1494 2749 c-4 -7 -20 -8 -41 -4 -39 7 -63 -7 -63 -36 0 -13 7 -19
23 -20 l22 0 -23 -11 c-12 -6 -21 -16 -19 -22 5 -16 48 -36 79 -36 36 0 82 39
72 63 -8 21 -55 20 -62 -2 -3 -10 2 -13 22 -9 28 6 36 -6 10 -16 -21 -8 -69
-8 -77 1 -4 3 -2 12 4 19 13 16 4 34 -17 34 -8 0 -14 4 -14 8 0 4 28 7 63 6
72 -2 85 3 60 22 -22 16 -30 17 -39 3z"/>
<path d="M1631 2739 c-13 -5 -21 -15 -18 -23 3 -7 1 -18 -4 -23 -6 -6 -4 -15
7 -24 13 -11 18 -11 21 -1 7 18 23 15 23 -4 0 -12 -7 -15 -30 -12 -35 5 -41
-15 -10 -32 15 -8 24 -6 40 10 11 11 20 27 20 35 0 18 8 18 40 0 23 -13 23
-14 4 -15 -29 0 -35 -9 -21 -31 15 -24 34 -24 47 0 19 37 12 59 -23 70 -19 7
-41 9 -49 6 -8 -3 -23 4 -34 16 -19 22 -19 22 3 10 12 -6 34 -11 48 -11 14 0
35 -5 47 -11 25 -13 35 -4 17 17 -8 10 -22 14 -40 10 -17 -3 -32 0 -39 9 -14
17 -16 17 -49 4z"/>
<path d="M1282 2728 c-15 -15 -16 -57 -2 -92 12 -34 55 -36 63 -4 7 26 -10 61
-26 55 -20 -6 -20 -35 0 -41 11 -3 9 -4 -7 -3 -21 2 -25 7 -25 32 0 25 4 30
28 33 30 4 36 17 11 26 -22 8 -28 8 -42 -6z"/>
<path d="M1170 2699 c-16 -29 -5 -49 25 -49 50 0 17 -44 -40 -52 -14 -2 -20 3
-20 17 0 14 -8 21 -28 23 -30 4 -27 22 4 22 24 0 25 16 2 24 -11 5 -22 0 -31
-11 -18 -25 -11 -46 18 -53 23 -6 24 -7 6 -17 -29 -16 -9 -33 40 -33 34 0 51
6 69 25 39 38 27 75 -23 75 -13 0 -20 4 -17 10 3 6 15 10 26 10 23 0 25 15 3
24 -22 8 -22 8 -34 -15z"/>
<path d="M1843 2690 c-35 -14 -28 -28 30 -54 28 -12 58 -30 66 -39 12 -15 10
-17 -18 -17 -40 0 -101 25 -101 41 0 10 3 10 12 1 14 -14 38 -16 38 -2 0 15
-50 24 -62 12 -18 -18 17 -60 62 -73 30 -9 46 -9 65 -1 46 21 25 56 -52 87
-24 10 -43 21 -43 26 0 12 17 12 25 0 3 -5 20 -13 37 -17 18 -3 40 -11 50 -17
9 -6 20 -8 24 -4 13 12 -18 37 -46 37 -15 0 -33 7 -40 15 -14 17 -16 17 -47 5z"/>
<path d="M908 2600 c-35 -36 -34 -66 2 -63 24 3 25 2 5 -13 -20 -15 -20 -15 5
-34 32 -25 45 -20 45 13 -1 30 6 33 36 15 17 -11 22 -10 35 6 16 22 19 56 5
56 -5 0 -11 -9 -14 -20 -6 -23 -15 -24 -82 -6 l-50 13 35 21 c19 12 46 22 60
21 25 0 25 0 3 -9 -13 -5 -23 -14 -23 -20 0 -15 26 -12 40 5 10 12 10 18 0 30
-21 25 -68 18 -102 -15z"/>
<path d="M1459 2607 c-8 -24 -5 -38 8 -35 22 4 27 24 8 31 -8 4 -15 5 -16 4z"/>
<path d="M1504 2584 l7 -26 -58 7 c-53 6 -56 6 -43 -10 11 -13 24 -15 59 -11
25 3 54 7 63 8 28 4 11 58 -19 58 -11 0 -14 -6 -9 -26z"/>
<path d="M2048 2603 c-22 -5 -24 -31 -3 -39 8 -4 15 -10 15 -15 0 -5 -11 -4
-25 1 -23 9 -25 7 -25 -18 0 -40 16 -52 51 -40 32 11 59 5 59 -13 0 -8 -4 -8
-15 1 -18 15 -30 7 -22 -15 8 -20 46 -19 54 2 9 23 -32 55 -62 47 -13 -3 -26
-1 -29 5 -4 6 0 11 8 11 24 0 29 20 10 41 -10 12 -13 19 -5 19 19 0 64 -26 85
-49 22 -24 12 -29 -11 -6 -18 18 -28 13 -20 -10 8 -20 57 -20 57 1 0 29 -21
56 -55 70 -35 14 -38 15 -67 7z"/>
<path d="M784 2522 c-12 -8 -34 -46 -34 -58 0 -4 9 2 20 14 24 25 52 28 69 8
9 -10 8 -16 -4 -26 -23 -19 -18 -40 10 -40 36 0 41 23 13 62 -12 18 -23 34
-23 34 0 7 -43 12 -51 6z"/>
<path d="M1327 2510 c-253 -46 -497 -196 -645 -397 -40 -56 -48 -62 -55 -45
-9 19 -104 82 -124 82 -6 0 -16 -7 -23 -15 -21 -25 -23 -9 -3 22 10 15 24 37
29 48 7 13 21 20 40 20 29 0 31 -5 19 -37 -6 -15 -2 -18 24 -18 43 0 41 30 -5
65 -30 23 -41 26 -63 19 -19 -7 -27 -17 -29 -41 -2 -21 -10 -34 -23 -38 -21
-7 -26 -44 -7 -63 9 -9 16 -8 31 5 17 17 21 16 65 -9 26 -15 48 -33 50 -40 1
-7 -7 -28 -18 -47 -17 -26 -26 -32 -46 -28 -31 6 -41 -10 -21 -31 14 -13 21
-13 43 -3 21 9 25 9 21 -1 -94 -214 -124 -392 -97 -583 72 -514 495 -885 1010
-885 466 0 866 310 987 765 23 87 26 119 26 250 0 131 -3 163 -27 250 -14 55
-42 133 -61 174 -26 55 -34 82 -30 103 4 15 11 28 16 28 5 0 9 7 9 15 0 18
-16 20 -23 3 -3 -8 -6 -6 -6 5 -1 9 5 17 13 17 16 0 46 -53 46 -79 -1 -14 -3
-13 -15 3 -21 27 -45 8 -26 -22 6 -10 13 -11 34 -1 15 7 27 18 27 26 0 16 5
16 29 1 15 -9 25 -9 46 0 23 11 26 16 20 43 -5 22 -4 29 4 25 6 -4 11 -13 11
-21 0 -23 17 -26 23 -4 4 14 -1 22 -16 28 -35 13 -49 2 -42 -30 8 -36 -12 -39
-43 -6 -28 29 -28 53 -2 60 17 4 19 11 14 31 -8 34 4 33 17 -1 10 -26 12 -27
19 -8 6 14 3 24 -8 33 -26 20 -47 10 -45 -22 2 -27 1 -27 -16 -12 -20 18 -31
12 -31 -16 0 -14 -5 -18 -19 -13 -11 3 -28 -2 -42 -14 -19 -15 -21 -21 -11
-34 10 -12 10 -17 1 -23 -6 -4 -15 0 -20 8 -27 48 -109 146 -171 203 -109 101
-98 77 21 -42 179 -181 267 -367 291 -613 46 -475 -258 -925 -715 -1058 -244
-71 -516 -47 -738 64 -152 77 -315 228 -406 376 -199 323 -195 750 12 1067
249 382 718 550 1152 414 84 -27 185 -74 247 -116 53 -37 94 -24 144 44 32 45
36 54 25 71 -7 11 -9 23 -6 26 4 4 11 0 16 -9 4 -9 22 -22 39 -29 33 -14 50
-54 31 -73 -9 -9 -16 -9 -30 0 -23 14 -31 8 -31 -24 0 -34 30 -29 70 12 29 30
32 38 23 58 -7 15 -23 27 -41 30 -22 4 -31 13 -34 29 -4 28 -26 34 -53 14 -16
-12 -18 -17 -7 -27 6 -7 12 -19 12 -27 0 -20 -59 -92 -76 -92 -7 0 -28 13 -46
29 -29 25 -31 31 -18 46 12 14 12 18 0 25 -34 21 -54 -38 -24 -71 9 -10 -27 4
-82 31 -159 79 -250 102 -434 106 -85 1 -177 -1 -203 -6z m1133 -440 c0 -5 -2
-10 -4 -10 -3 0 -8 5 -11 10 -3 6 -1 10 4 10 6 0 11 -4 11 -10z"/>
<path d="M1305 2470 c-207 -45 -369 -134 -511 -281 -163 -171 -252 -361 -273
-590 -49 -518 309 -980 824 -1064 422 -69 842 147 1034 531 65 131 92 238 98
392 7 159 -6 250 -53 381 -62 175 -183 338 -334 453 -85 65 -244 141 -350 168
-125 32 -316 36 -435 10z m427 -24 c287 -79 508 -258 635 -511 214 -424 74
-959 -320 -1227 -159 -108 -315 -158 -517 -165 -153 -5 -260 12 -392 65 -447
179 -693 660 -578 1132 25 104 101 263 168 350 131 173 335 307 538 354 38 8
78 18 89 20 46 11 322 -2 377 -18z"/>
<path d="M1251 2414 c-314 -84 -579 -353 -662 -672 -26 -98 -35 -274 -20 -370
38 -242 172 -471 359 -613 83 -63 245 -142 334 -164 228 -55 440 -34 643 64
165 79 286 185 386 338 107 164 154 340 146 543 -6 151 -30 249 -91 375 -107
219 -299 394 -522 474 -89 32 -184 50 -184 34 0 -19 46 -52 83 -58 20 -4 40
-11 43 -16 3 -5 14 -9 25 -9 27 0 137 -52 121 -58 -7 -2 -12 -10 -12 -18 0
-17 -10 -17 -32 0 -25 18 -22 29 5 21 22 -7 22 -7 -2 11 -23 16 -25 16 -37 -1
-10 -14 -17 -15 -27 -7 -9 7 -23 8 -43 3 l-29 -9 35 -1 c19 -1 53 -10 75 -21
l40 -19 -65 6 c-71 6 -123 29 -99 44 8 5 24 9 37 9 15 0 21 4 16 12 -5 8 0 9
16 5 13 -3 19 -2 14 3 -15 14 -49 16 -46 3 3 -17 -11 -16 -56 2 -26 12 -33 18
-23 24 9 6 10 11 2 15 -13 8 -31 -1 -31 -15 0 -6 18 -18 41 -28 23 -10 35 -21
28 -23 -8 -3 -20 1 -27 9 -16 16 -36 18 -27 2 4 -6 25 -23 46 -39 27 -19 36
-31 28 -36 -9 -5 -2 -16 21 -36 l34 -28 -44 -1 -45 -1 40 -8 c22 -4 45 -4 50
0 26 21 154 -49 241 -132 33 -32 64 -56 67 -53 4 3 5 2 2 -1 -2 -4 9 -26 26
-50 42 -61 96 -178 104 -225 4 -21 10 -37 14 -35 4 3 7 -12 8 -32 0 -20 2 -66
3 -102 1 -36 -1 -82 -5 -103 -5 -25 -3 -42 5 -52 15 -18 53 -20 47 -2 -2 6
-11 11 -21 9 -20 -4 -23 50 -2 67 11 9 13 6 10 -16 -4 -27 -3 -27 4 -3 6 18
10 21 16 12 12 -21 -3 -140 -21 -158 -14 -13 -13 -14 13 -8 16 4 44 13 63 20
19 8 36 12 39 9 6 -6 -76 -44 -98 -46 -9 0 -10 -3 -3 -5 6 -3 28 2 49 11 20 8
39 13 41 11 12 -11 -12 -49 -43 -70 -23 -15 -31 -26 -22 -29 20 -7 -57 -37
-97 -37 -20 0 -50 -6 -68 -13 -41 -17 -57 -12 -57 19 0 39 -28 96 -68 137 -47
48 -75 50 -33 2 16 -19 37 -58 46 -87 18 -61 13 -76 -9 -24 -8 20 -19 36 -25
36 -6 0 -17 15 -26 34 -25 52 -95 74 -82 25 4 -15 0 -19 -18 -19 -13 0 -27 -5
-31 -12 -11 -18 34 -48 75 -48 32 -1 34 -2 16 -12 -29 -16 -45 -39 -45 -66 l0
-23 26 20 c34 26 58 26 95 0 56 -39 32 -88 -83 -174 -21 -15 -36 -31 -33 -35
3 -5 1 -11 -4 -14 -5 -4 -12 13 -16 36 -15 103 -14 100 -49 94 -31 -6 -34 -4
-51 34 -18 40 -18 40 5 65 l24 25 -44 38 c-75 65 -76 65 -93 38 -16 -24 -16
-24 -62 -7 -44 15 -46 18 -43 49 l4 32 -84 0 -83 0 3 -27 c3 -24 -3 -31 -42
-50 l-45 -22 -22 27 -22 26 -48 -44 c-26 -24 -52 -47 -57 -51 -5 -5 1 -16 14
-27 l24 -20 -24 -45 c-22 -42 -26 -45 -56 -40 -30 5 -34 3 -39 -23 -3 -16 -9
-42 -13 -57 l-7 -29 -70 59 c-82 69 -92 98 -49 138 33 31 70 32 101 3 13 -12
25 -20 27 -17 11 11 -22 75 -44 86 -25 13 -25 13 11 13 38 0 94 34 84 51 -4 5
-19 9 -34 9 -25 0 -28 3 -23 25 3 18 0 25 -11 25 -21 0 -77 -48 -77 -66 0 -7
-9 -18 -19 -23 -10 -6 -24 -24 -29 -41 -16 -43 -21 -37 -11 11 12 52 25 77 57
111 40 43 19 44 -29 1 -46 -42 -78 -102 -79 -147 0 -23 -3 -26 -14 -17 -20 17
-64 121 -86 203 -10 40 -19 63 -19 51 -1 -11 8 -49 18 -82 10 -34 15 -61 10
-61 -5 0 -9 8 -9 18 0 15 -2 15 -11 2 -8 -12 -9 -11 -5 5 3 11 -1 40 -9 65 -7
25 -14 39 -14 32 -1 -7 -5 -10 -11 -7 -15 9 -12 -7 5 -29 22 -29 20 -67 -2
-60 -10 3 3 -6 30 -21 46 -25 64 -43 30 -31 -11 4 -8 -2 8 -16 15 -13 33 -37
42 -54 l14 -32 -33 14 c-18 8 -50 14 -71 14 -40 0 -113 31 -135 57 -12 15 -11
15 12 3 21 -11 20 -8 -7 17 -18 17 -33 38 -33 47 0 20 -1 20 45 0 20 -8 42
-13 48 -10 7 2 6 5 -3 5 -22 2 -104 40 -98 46 3 3 20 -1 39 -9 19 -7 47 -16
63 -20 26 -6 27 -6 12 9 -23 24 -21 75 3 75 31 0 44 25 36 67 -4 21 -6 67 -5
103 1 36 3 82 3 102 1 20 4 35 8 32 4 -2 10 12 13 31 4 20 16 56 27 81 10 25
16 51 12 56 -3 7 -1 8 5 4 7 -4 12 -3 12 3 0 5 21 40 46 76 25 37 40 64 33 59
-8 -5 -9 -3 -5 5 5 7 11 10 14 7 3 -3 30 18 61 47 81 77 214 149 237 127 5 -4
29 -4 54 0 l45 7 -50 2 -49 1 34 28 c23 20 30 31 21 36 -8 5 1 17 28 36 21 16
42 33 46 39 9 16 -11 14 -27 -2 -7 -8 -19 -12 -27 -9 -7 2 5 13 28 23 23 10
41 22 41 28 0 19 -20 22 -42 6 l-23 -17 23 7 c35 10 26 -4 -13 -21 -42 -17
-56 -18 -52 -1 2 13 -32 11 -47 -3 -5 -5 0 -6 13 -3 28 7 27 -3 -4 -23 -24
-16 -27 -16 -39 1 -12 17 -14 17 -37 1 -24 -18 -24 -18 -1 -11 26 8 29 -3 5
-21 -23 -17 -33 -17 -33 0 0 8 -5 16 -12 18 -16 6 94 58 121 58 11 0 22 4 25
9 4 5 24 12 45 16 38 6 81 36 81 55 0 14 -45 11 -109 -6z m92 -5 c-7 -7 -61
-28 -122 -49 -146 -48 -254 -115 -361 -220 -133 -131 -218 -285 -256 -462 -16
-77 -21 -245 -9 -319 6 -37 5 -42 -6 -31 -22 20 -19 308 3 389 82 299 255 509
522 634 114 53 261 90 229 58z m417 -10 c239 -66 461 -253 575 -484 71 -145
90 -231 90 -417 0 -117 -3 -160 -13 -170 -11 -11 -12 -6 -6 27 13 63 8 243 -9
320 -50 230 -192 444 -382 572 -85 57 -134 80 -248 118 -56 18 -103 38 -105
44 -5 16 13 14 98 -10z m-481 -108 c22 -14 -26 -38 -92 -45 -69 -8 -112 -28
-191 -93 -41 -34 -56 -40 -56 -23 0 6 10 14 23 19 13 5 29 16 36 24 22 28 192
107 230 108 33 1 34 2 11 9 l-25 8 25 1 c14 0 31 -3 39 -8z m-225 -32 c-4 -8
0 -8 15 0 27 15 27 4 -1 -26 -25 -26 -48 -30 -48 -7 0 8 -4 12 -10 9 -5 -3
-10 -2 -10 3 0 5 10 14 23 20 29 14 40 14 31 1z m896 1 c0 6 12 4 30 -5 31
-16 42 -32 15 -21 -9 3 -15 0 -15 -9 0 -21 -20 -18 -47 7 -28 26 -30 42 -3 28
14 -8 20 -8 20 0z m-703 -37 c3 -6 -9 -19 -26 -27 -38 -20 -36 -21 -37 15 -1
28 1 30 29 27 17 -2 32 -8 34 -15z m569 -13 c-1 -16 -2 -30 -4 -30 -2 0 -17 8
-35 17 -32 17 -32 17 -7 21 23 4 24 5 5 13 -17 6 -15 8 11 8 28 1 31 -2 30
-29z m123 5 c27 -14 57 -35 66 -45 10 -11 24 -20 31 -20 7 0 18 -9 24 -20 10
-19 10 -19 -23 0 -19 11 -42 29 -52 40 -10 11 -22 20 -27 20 -5 0 -22 10 -38
22 -16 12 -32 19 -36 16 -3 -4 4 -9 15 -13 24 -7 28 -25 6 -25 -25 0 -17 -17
10 -22 20 -4 23 -3 14 8 -15 18 -5 18 31 -1 34 -18 35 -21 16 -41 -19 -19 -30
-18 -51 6 -10 11 -28 20 -39 20 -24 0 -66 26 -66 41 0 6 10 8 23 4 21 -6 21
-5 2 7 -19 12 -19 13 10 19 17 4 31 7 33 8 1 0 24 -10 51 -24z m-784 -1 c-20
-16 -20 -16 3 -9 29 8 29 -9 0 -29 -28 -20 -48 -20 -48 -1 0 19 -24 19 -39 1
-10 -12 -8 -13 11 -9 l23 6 -24 -27 c-29 -30 -37 -32 -59 -9 -15 15 -15 17 2
27 10 6 37 23 60 38 22 15 52 28 66 27 25 0 25 0 5 -15z m-181 -6 c-5 -9 -2
-8 9 1 25 20 33 6 13 -24 -17 -25 -46 -34 -46 -14 0 6 -7 9 -15 5 -26 -10 -16
13 13 28 34 19 35 19 26 4z m1045 0 c11 -10 13 -10 7 0 -10 16 0 15 29 -4 27
-18 34 -37 10 -28 -8 4 -15 1 -15 -5 0 -17 -18 -13 -40 9 -31 31 -22 57 9 28z
m-1114 -58 c-3 -5 -1 -10 4 -10 6 0 11 5 11 10 0 6 5 10 10 10 17 0 11 -16
-16 -45 -19 -21 -28 -25 -34 -15 -5 8 -15 10 -26 6 -13 -5 -10 2 10 23 28 29
54 43 41 21z m1184 -2 c11 -10 13 -10 7 0 -13 23 10 12 40 -19 20 -21 23 -28
10 -23 -11 4 -21 2 -26 -6 -6 -10 -15 -6 -34 15 -26 28 -33 45 -18 45 4 0 14
-6 21 -12z m-1106 -35 c-6 -16 -5 -16 10 -5 11 9 21 11 33 4 11 -6 13 -11 5
-16 -6 -4 -11 -3 -11 3 0 6 -12 -2 -26 -16 -15 -14 -29 -22 -33 -16 -10 15
-40 23 -46 13 -3 -6 -15 -15 -26 -20 -32 -18 -21 6 16 34 27 21 33 23 28 9 -5
-15 -1 -14 18 5 28 26 41 28 32 5z m1062 -3 c11 -12 21 -16 25 -11 3 6 18 0
35 -14 17 -13 27 -26 24 -29 -3 -4 -17 2 -30 12 -24 19 -48 18 -60 -1 -4 -6
-18 1 -33 16 -14 14 -26 22 -26 16 0 -6 -5 -7 -11 -3 -17 10 12 25 35 18 12
-4 16 -2 12 5 -12 19 10 12 29 -9z m-1194 -29 c4 7 11 10 15 7 4 -4 0 -18 -9
-31 -11 -17 -24 -24 -46 -23 -38 1 -39 8 -4 36 18 14 29 17 31 10 3 -9 7 -9
13 1z m1308 -3 c11 -11 12 -10 6 1 -9 16 8 8 38 -17 24 -21 21 -27 -14 -27
-19 0 -36 7 -45 19 -24 33 -13 50 15 24z m-29 -38 c0 9 9 5 25 -10 30 -28 31
-36 6 -36 -10 0 -17 6 -14 12 6 16 -10 25 -26 15 -11 -7 -9 -13 8 -30 12 -12
21 -16 21 -8 1 6 10 1 21 -13 l20 -24 -22 -8 c-16 -6 -25 -4 -35 9 -7 10 -14
22 -14 26 0 12 -70 76 -70 65 0 -5 -5 -6 -11 -2 -8 5 -6 10 5 16 11 6 22 6 32
-3 12 -10 13 -9 8 7 -6 16 -3 15 19 -5 17 -16 27 -20 27 -11z m-1216 8 c-6 -9
-3 -9 9 0 11 9 21 11 33 4 11 -6 13 -11 5 -16 -6 -4 -11 -2 -11 5 0 6 -9 0
-21 -15 -15 -19 -24 -24 -33 -16 -7 5 -16 7 -19 3 -4 -3 -7 -1 -7 6 0 7 -4 10
-9 7 -5 -3 -8 -18 -8 -33 0 -24 1 -25 12 -10 16 22 24 22 18 0 -9 -37 -29 -54
-52 -45 l-22 8 21 27 c12 15 18 27 14 27 -4 0 -13 -8 -20 -17 -7 -10 -14 -13
-14 -6 0 20 52 76 60 63 5 -8 11 -6 20 5 15 18 34 20 24 3z m-118 -37 c20 17
11 -68 -10 -89 -23 -23 -22 5 2 32 16 20 16 20 0 7 -13 -10 -18 -10 -18 -2 0
8 -8 10 -21 6 -16 -6 -20 -4 -14 6 17 30 40 50 43 39 3 -8 8 -8 18 1z m1424
-1 c0 16 26 -5 41 -33 9 -16 8 -18 -10 -12 -14 4 -21 2 -21 -7 0 -7 -9 -2 -20
12 -11 14 -20 20 -20 14 0 -6 9 -19 20 -29 20 -18 28 -51 10 -40 -19 12 -39
62 -33 84 4 17 8 19 19 10 11 -9 14 -8 14 1z m-1475 -117 c-13 -18 -19 -22
-25 -13 -4 7 -13 9 -19 6 -18 -11 -13 10 9 35 14 17 20 20 20 9 0 -11 4 -9 12
5 11 19 13 19 16 2 2 -10 -4 -30 -13 -44z m1525 38 c1 9 7 6 20 -10 24 -28 26
-43 5 -35 -9 4 -15 0 -15 -7 -1 -9 -8 -6 -19 8 -10 12 -21 20 -23 17 -3 -2 -3
7 0 22 5 26 6 26 18 9 10 -14 14 -15 14 -4z m-1466 -23 c-5 -9 -2 -9 9 1 20
16 22 3 5 -34 -11 -25 -28 -34 -28 -15 0 5 -7 7 -16 3 -15 -5 -15 -3 0 26 9
17 21 31 27 31 6 0 7 -6 3 -12z m1392 0 c-4 6 -3 12 3 12 6 0 18 -14 27 -31
15 -29 15 -31 0 -26 -9 4 -16 2 -16 -3 0 -19 -17 -10 -28 15 -17 37 -15 50 5
34 11 -10 14 -10 9 -1z m-1447 -52 c-24 -51 -35 -60 -25 -20 7 26 38 75 44 69
2 -1 -7 -24 -19 -49z m1541 5 c1 10 5 8 15 -5 8 -11 15 -16 15 -10 1 15 30
-28 30 -44 0 -12 -3 -12 -15 -2 -22 18 -27 9 -30 -57 -2 -32 -1 -52 2 -45 9
23 23 1 23 -36 -1 -33 -2 -35 -12 -17 -14 24 -40 45 -50 39 -9 -6 -14 4 -23
44 -5 26 -4 32 11 32 9 0 23 -8 30 -17 7 -10 14 -13 14 -6 0 6 -4 15 -10 18
-5 3 -10 15 -10 26 0 11 5 17 10 14 12 -7 12 2 0 30 -8 20 -9 20 -9 0 -1 -19
-1 -19 -15 0 -7 11 -17 31 -21 45 l-7 25 26 -24 c18 -17 26 -20 26 -10z
m-1575 -23 c-10 -44 -16 -53 -25 -37 -7 10 -11 10 -24 0 -9 -8 -16 -10 -16 -5
1 14 29 60 30 49 0 -5 5 -2 11 8 17 29 31 20 24 -15z m75 0 c-1 -36 -13 -55
-36 -55 -27 0 -29 8 -13 39 9 17 13 18 20 7 7 -11 9 -10 9 4 0 9 5 17 10 17 6
0 10 -6 10 -12z m1440 -5 c0 -14 2 -15 9 -4 7 11 11 10 20 -7 6 -11 11 -25 11
-31 0 -20 -39 -5 -62 24 -12 16 -17 26 -10 21 6 -4 12 -2 12 3 0 6 5 11 10 11
6 0 10 -8 10 -17z m-1521 -79 c-6 -8 -9 -17 -6 -21 4 -3 9 2 13 11 3 9 10 16
16 16 5 0 6 -6 2 -12 -5 -9 -2 -9 9 1 15 12 17 11 17 -2 0 -24 -20 -71 -27
-63 -3 3 -12 1 -20 -5 -10 -9 -13 -6 -13 12 0 13 -3 35 -7 49 l-7 25 -6 -25
c-3 -14 -11 -25 -17 -25 -6 0 -15 -3 -19 -7 -16 -17 -23 -7 -13 20 5 15 12 34
15 42 4 13 6 13 14 0 8 -12 10 -12 10 -1 0 7 6 11 14 8 8 -3 18 2 22 11 6 16
7 16 11 -1 3 -10 -1 -25 -8 -33z m1632 17 c6 10 13 3 24 -25 17 -40 14 -56 -7
-38 -7 6 -17 10 -23 9 -5 -1 -11 14 -12 33 -1 19 0 29 4 21 4 -11 7 -11 14 0z
m-1660 -128 c-9 -15 -10 -12 -11 18 0 20 3 39 8 43 11 12 14 -42 3 -61z m-15
-113 c-4 -62 -3 -68 5 -35 5 22 9 60 9 85 0 25 6 55 15 65 14 20 14 20 15 0
l1 -20 9 20 c7 16 9 14 9 -15 1 -24 -5 -39 -18 -47 -14 -9 -17 -19 -13 -40 l6
-28 6 25 c6 24 7 23 15 -9 6 -29 4 -38 -14 -52 -11 -9 -21 -21 -21 -25 0 -4 3
-4 7 -1 3 4 12 2 20 -4 17 -15 18 -72 1 -66 -7 2 -19 -3 -26 -12 -11 -14 -13
-9 -9 32 3 26 1 47 -4 47 -11 0 -11 -74 0 -122 5 -21 6 -38 2 -38 -10 0 -31
99 -33 155 -1 50 -2 50 -5 8 -3 -30 -8 -40 -18 -37 -7 3 -15 -2 -18 -13 -3
-10 -4 41 -3 112 3 131 17 195 37 164 7 -11 9 -9 10 6 1 11 5 -2 11 -30 5 -27
7 -84 4 -125z m1695 156 c21 12 36 -63 37 -176 1 -64 -3 -108 -7 -101 -5 8
-14 11 -19 7 -7 -4 -12 10 -15 36 -3 42 -4 42 -5 -9 -2 -59 -22 -153 -33 -153
-4 0 -2 19 3 43 6 23 11 101 12 172 3 159 6 204 13 187 2 -6 9 -10 14 -6z
m-71 -41 c2 40 31 -16 31 -60 0 -22 2 -61 5 -87 3 -27 3 -48 -1 -48 -12 0 -55
50 -54 63 0 7 4 21 9 32 8 18 9 18 10 -5 l2 -25 8 25 c5 19 3 29 -11 42 -12
10 -19 29 -18 50 0 27 2 30 9 13 l9 -20 1 20z m-1639 -295 c14 -45 10 -55 -20
-45 -16 5 -21 15 -21 38 0 25 3 29 11 17 8 -11 9 -8 4 13 -9 43 12 24 26 -23z
m1738 -11 c1 -25 -14 -39 -41 -39 -11 0 -2 53 15 85 10 19 10 19 18 0 4 -11 8
-32 8 -46z m-1319 -78 c-9 -19 -47 -38 -56 -29 -9 9 29 48 47 48 16 0 18 -3 9
-19z m494 -13 c-6 -32 -5 -33 55 -55 60 -21 61 -21 71 -2 15 27 24 24 70 -17
l41 -37 -22 -23 -22 -24 23 -50 c23 -48 25 -50 57 -44 28 5 33 3 33 -12 0 -11
3 -36 7 -58 l6 -38 -32 7 c-27 6 -31 4 -31 -15 0 -12 -9 -24 -22 -29 -20 -7
-19 -8 12 -14 20 -4 38 -3 47 4 7 7 17 9 20 5 4 -4 1 -11 -7 -16 -12 -8 -10
-10 7 -10 15 0 21 5 17 14 -3 9 6 21 25 32 16 10 28 21 25 25 -2 4 5 5 16 2
33 -9 34 -23 4 -54 l-28 -29 50 0 c29 0 44 4 36 8 -10 7 -8 12 5 24 29 25 81
49 87 39 10 -15 -5 -42 -28 -52 -16 -7 -14 -8 14 -4 l34 5 -29 -30 c-46 -48
-148 -110 -181 -110 -22 0 -26 -3 -14 -10 12 -8 11 -10 -7 -10 -13 0 -23 -4
-23 -10 0 -9 -148 -60 -176 -60 -11 0 -13 7 -8 28 10 39 12 42 42 42 26 -1 26
-1 8 -15 -11 -8 -16 -15 -10 -15 5 0 18 7 28 15 11 8 40 15 65 15 42 1 37 3
-49 26 -132 34 -245 54 -294 53 -22 -1 -33 -3 -23 -6 17 -4 17 -6 2 -30 -9
-13 -15 -27 -12 -29 2 -3 12 7 21 21 21 32 40 32 55 -1 6 -15 14 -24 17 -21 3
3 -3 18 -13 33 -17 27 -17 28 0 21 10 -4 31 -7 45 -7 l27 0 -23 -18 c-12 -10
-26 -31 -31 -47 -5 -19 -14 -29 -24 -29 -10 1 -17 -2 -17 -7 0 -13 24 -11 38
3 17 17 28 2 12 -17 -17 -20 -103 -20 -120 0 -16 19 -5 34 12 17 14 -14 38
-16 38 -3 0 5 -7 8 -17 7 -10 -1 -19 10 -25 31 -4 18 -18 39 -29 47 -20 13
-20 14 -2 20 61 17 -81 -10 -172 -34 -101 -26 -106 -28 -65 -31 25 -1 59 -1
76 0 35 3 38 0 48 -42 7 -28 6 -29 -26 -22 -60 12 -158 47 -158 56 0 5 -10 9
-22 9 -19 0 -20 2 -8 10 11 7 8 10 -16 10 -21 0 -55 17 -104 52 -63 44 -71 52
-55 59 17 6 16 8 -7 8 -15 1 -30 5 -33 11 -4 6 5 8 22 6 15 -2 23 -2 18 1 -16
6 -36 43 -30 53 7 11 58 -12 88 -38 13 -12 15 -17 5 -24 -8 -4 7 -8 35 -8 l49
0 -29 33 c-15 19 -33 32 -39 30 -6 -2 -17 3 -24 12 -8 9 -29 15 -59 15 -46 0
-47 -1 -45 -30 1 -16 -1 -30 -5 -30 -12 0 -72 66 -65 72 3 4 -4 9 -16 13 -12
4 -20 11 -18 17 2 5 -11 26 -30 45 -18 19 -31 40 -29 47 2 6 -3 17 -12 24 -14
10 -11 11 14 7 l30 -6 -32 15 c-18 8 -33 20 -33 26 0 7 -9 23 -20 37 -24 30
-26 45 -5 37 8 -4 15 -14 15 -24 0 -18 10 -19 99 -20 18 0 22 -4 18 -19 -2
-10 0 -26 5 -35 15 -26 1 -18 -38 22 -35 35 -35 36 -10 3 21 -26 24 -36 14
-42 -8 -6 -2 -9 18 -9 34 0 48 18 33 41 -14 22 -11 28 13 24 32 -6 91 -67 75
-77 -8 -5 -9 -8 0 -8 6 0 20 -3 30 -7 17 -7 17 -6 0 11 -10 10 -16 25 -13 33
3 8 2 12 -3 9 -5 -3 -15 2 -22 12 -13 15 -12 16 4 3 16 -12 17 -10 17 30 0 27
10 64 25 94 14 28 23 41 20 31 -27 -92 -34 -191 -17 -208 18 -18 14 -28 -10
-29 -17 -1 -14 -3 10 -9 17 -4 48 -18 67 -31 l35 -24 -43 -6 -42 -6 52 -1 c64
-2 83 -22 21 -22 -39 -1 -41 -2 -24 -15 13 -10 25 -11 43 -4 13 5 22 5 19 1
-3 -5 9 -16 25 -26 19 -11 28 -23 25 -32 -4 -9 2 -14 16 -14 18 0 19 2 7 16
-21 26 -19 42 6 40 13 0 22 -3 19 -5 -2 -2 4 -10 14 -18 15 -11 13 -12 -11 -3
-38 14 -45 13 -22 -4 11 -7 34 -16 50 -20 22 -5 26 -4 15 4 -13 8 -12 10 5 11
18 1 18 2 2 6 -10 3 -22 16 -27 29 -7 18 -17 24 -40 24 -33 0 -36 9 -24 69 6
29 10 32 38 29 29 -3 33 1 61 54 29 57 30 57 10 72 -19 14 -19 16 20 56 l40
41 21 -26 21 -26 56 27 c49 24 57 32 57 56 0 28 1 28 64 28 l65 0 -5 -32z
m410 10 c9 -12 14 -24 12 -26 -9 -9 -47 10 -56 29 -9 16 -7 19 9 19 11 0 27
-10 35 -22z m116 -71 c6 -21 10 -56 8 -77 -2 -21 0 -36 4 -34 16 10 7 -13 -12
-34 -22 -23 -18 -26 15 -12 12 5 14 9 6 9 -10 1 -7 9 10 28 19 21 20 25 6 20
-11 -4 -16 -3 -12 4 4 6 13 8 20 5 7 -2 17 0 22 5 12 12 53 20 53 11 0 -16
-33 -54 -54 -62 -19 -8 -19 -9 7 -9 15 -1 27 3 27 7 0 4 17 6 38 4 24 -2 33 0
24 6 -10 7 -8 16 14 43 25 33 25 32 -10 -3 -34 -36 -61 -53 -38 -25 6 7 9 23
5 35 -4 18 -1 22 18 22 91 1 99 2 99 21 0 11 6 19 13 19 9 0 8 3 -2 9 -11 7
-9 12 10 22 21 11 22 10 12 -3 -7 -8 -10 -18 -7 -21 4 -3 -7 -28 -24 -56 -17
-27 -28 -52 -25 -55 3 -3 -2 -8 -11 -12 -9 -3 -13 -10 -10 -15 8 -13 -27 -68
-48 -75 -9 -3 -15 -11 -12 -19 3 -8 -3 -16 -16 -20 -12 -4 -19 -9 -16 -12 9
-9 -45 -73 -62 -73 -11 0 -5 11 18 35 25 26 30 35 17 35 -9 0 -17 -6 -17 -14
0 -7 -8 -20 -17 -27 -15 -13 -16 -12 -11 9 6 21 3 22 -42 22 -30 0 -52 -5 -60
-15 -18 -22 -32 -18 -20 5 10 18 8 20 -30 20 -61 0 -39 20 23 22 l52 1 -43 6
-43 6 42 28 c24 15 54 27 69 28 l25 0 -24 10 c-20 8 -21 12 -10 25 16 19 13
108 -6 172 -8 26 -15 49 -15 52 0 13 29 -40 40 -73z m-960 43 c0 -12 -42 -30
-71 -30 -26 0 -24 19 4 30 30 12 67 12 67 0z m816 -4 c10 -8 16 -18 11 -22
-10 -11 -80 8 -85 24 -5 17 49 16 74 -2z m-922 -30 c-5 -13 -53 -40 -60 -33
-2 2 3 13 12 25 17 24 57 31 48 8z m1001 -6 c10 -11 16 -23 13 -25 -8 -9 -56
16 -62 31 -8 22 28 17 49 -6z m-956 -49 c15 -23 15 -24 -6 -13 -33 18 -67 14
-97 -9 -15 -12 -30 -18 -33 -15 -16 15 69 68 101 64 10 -2 26 -14 35 -27z
m964 4 c20 -14 37 -30 37 -35 0 -15 -9 -12 -37 10 -29 22 -64 26 -95 9 -16 -9
-19 -8 -13 3 27 47 53 50 108 13z m-1051 -284 c18 -16 31 -32 28 -34 -3 -3
-22 10 -42 29 -21 19 -33 34 -28 34 5 0 24 -13 42 -29z m1052 -5 c-21 -19 -41
-32 -44 -29 -7 6 57 63 72 63 6 0 -6 -15 -28 -34z m-149 6 c2 -7 1 -11 -4 -7
-5 3 -22 1 -38 -5 -24 -9 -26 -8 -11 3 10 8 16 16 13 18 -2 3 5 5 15 5 11 0
22 -6 25 -14z m-469 -156 c10 -8 16 -18 12 -22 -4 -4 -2 -14 5 -22 10 -13 8
-14 -15 -9 -15 4 -29 3 -32 -2 -3 -5 2 -8 12 -7 9 0 17 -6 17 -14 0 -8 9 -23
20 -32 20 -17 19 -17 -12 -18 -26 0 -34 6 -47 32 -22 43 -20 55 12 67 26 10
25 10 -8 5 -19 -3 -39 -10 -44 -15 -15 -13 -26 -11 -26 5 0 19 39 46 65 46 12
0 30 -6 41 -14z m252 -2 c12 -8 22 -22 22 -30 0 -16 -11 -18 -25 -5 -6 5 -26
12 -45 15 -33 5 -34 5 -7 -5 17 -7 27 -18 28 -32 1 -20 2 -20 9 3 6 22 8 23
15 7 4 -9 5 -26 2 -37 -3 -11 0 -20 6 -20 6 0 8 -3 4 -6 -9 -9 -48 6 -42 17 4
5 2 9 -3 9 -5 0 -12 -9 -15 -20 -4 -15 -13 -20 -39 -20 -32 1 -33 1 -13 18 11
9 20 24 20 32 0 8 8 14 17 14 10 -1 15 2 12 7 -3 5 -17 6 -32 2 -23 -5 -25 -4
-15 9 7 8 10 18 6 22 -9 9 28 35 52 36 11 0 31 -7 43 -16z m-313 -106 c-5 -4
-17 -7 -25 -7 -9 0 -10 3 -4 5 7 3 10 14 7 24 -3 11 -2 28 2 37 5 15 9 11 19
-17 8 -24 8 -37 1 -42z m181 -15 c-11 -11 -65 -12 -72 -2 -3 5 14 9 37 9 23 0
39 -3 35 -7z"/>
<path d="M1218 2223 c7 -3 16 -2 19 1 4 3 -2 6 -13 5 -11 0 -14 -3 -6 -6z"/>
<path d="M629 1610 c-19 -16 -21 -19 -7 -20 31 0 33 -59 3 -85 -8 -6 -9 -19
-5 -35 7 -21 8 -22 9 -4 1 11 6 25 13 32 9 9 22 132 13 132 -1 0 -13 -9 -26
-20z"/>
<path d="M701 1434 c0 -11 3 -14 6 -6 3 7 2 16 -1 19 -3 4 -6 -2 -5 -13z"/>
<path d="M2343 1609 c4 -13 7 -28 7 -34 0 -5 5 -3 10 5 8 12 10 12 11 -5 l0
-20 8 20 c10 24 7 31 -21 46 -19 10 -20 9 -15 -12z"/>
<path d="M2351 1528 c0 -15 4 -30 9 -33 6 -3 10 -16 11 -28 1 -20 2 -20 9 3 4
16 3 29 -5 35 -7 6 -15 19 -18 30 -4 15 -5 14 -6 -7z"/>
<path d="M1450 1161 c-84 -17 -165 -82 -196 -157 -22 -52 -30 -154 -13 -154
11 0 13 12 10 51 -4 64 19 125 65 173 49 50 89 68 164 74 53 3 76 0 118 -18
94 -41 158 -140 150 -234 -2 -28 1 -46 7 -46 21 0 0 135 -29 184 -55 93 -173
148 -276 127z"/>
<path d="M680 1123 c0 -6 8 -17 18 -24 16 -13 16 -13 2 6 -8 11 -16 22 -17 24
-2 2 -3 0 -3 -6z"/>
<path d="M1389 1102 c-69 -36 -108 -96 -118 -181 -7 -57 -6 -61 13 -61 16 0
18 2 7 9 -10 7 -12 21 -8 55 26 189 236 262 367 127 59 -60 93 -170 58 -184
-8 -3 -6 -6 5 -6 26 -1 22 72 -7 134 -58 125 -195 171 -317 107z"/>
<path d="M810 1101 c0 -10 19 -25 25 -20 1 2 -3 10 -11 17 -8 7 -14 8 -14 3z"/>
<path d="M810 1059 c0 -11 25 -22 39 -17 6 1 -1 8 -14 15 -14 6 -25 7 -25 2z"/>
<path d="M1434 1036 c-41 -18 -73 -61 -81 -108 -4 -27 -13 -43 -27 -49 -19 -9
-18 -9 4 -5 14 3 51 8 82 12 40 5 55 10 51 20 -7 20 33 37 58 24 11 -7 18 -17
16 -24 -4 -10 11 -15 51 -20 31 -3 68 -8 82 -11 24 -5 24 -5 3 4 -14 6 -23 19
-23 33 0 37 -42 99 -80 119 -41 22 -92 24 -136 5z m142 -21 c24 -16 63 -85 64
-112 0 -27 -29 -11 -40 22 -6 19 -25 46 -43 61 -26 22 -38 25 -72 21 -47 -7
-95 -53 -95 -92 0 -16 -6 -25 -16 -25 -13 0 -15 7 -10 33 19 97 131 145 212
92z m-47 -26 c18 -6 38 -24 46 -40 20 -38 19 -49 -5 -49 -11 0 -20 7 -20 15 0
38 -83 43 -95 5 -7 -23 -55 -28 -55 -6 0 22 48 74 73 79 12 2 22 5 23 6 1 0
15 -4 33 -10z"/>
<path d="M730 1030 c8 -5 22 -9 30 -9 10 0 8 3 -5 9 -27 12 -43 12 -25 0z"/>
<path d="M813 1013 c15 -2 39 -2 55 0 15 2 2 4 -28 4 -30 0 -43 -2 -27 -4z"/>
<path d="M818 933 c7 -3 16 -2 19 1 4 3 -2 6 -13 5 -11 0 -14 -3 -6 -6z"/>
<path d="M868 923 c12 -2 30 -2 40 0 9 3 -1 5 -23 4 -22 0 -30 -2 -17 -4z"/>
<path d="M830 885 c29 -31 31 -31 17 0 -7 14 -18 25 -26 25 -10 0 -7 -8 9 -25z"/>
<path d="M896 866 c3 -8 13 -17 22 -21 13 -5 13 -2 -3 15 -21 24 -26 25 -19 6z"/>
<path d="M1020 876 c0 -2 7 -9 15 -16 9 -7 15 -8 15 -2 0 5 -7 12 -15 16 -8 3
-15 4 -15 2z"/>
<path d="M1418 873 c7 -3 16 -2 19 1 4 3 -2 6 -13 5 -11 0 -14 -3 -6 -6z"/>
<path d="M1568 873 c7 -3 16 -2 19 1 4 3 -2 6 -13 5 -11 0 -14 -3 -6 -6z"/>
<path d="M1959 863 c-13 -16 -12 -17 4 -4 16 13 21 21 13 21 -2 0 -10 -8 -17
-17z"/>
<path d="M2084 859 c-19 -22 -19 -22 4 -10 12 6 22 16 22 21 0 15 -5 12 -26
-11z"/>
<path d="M1358 863 c6 -2 18 -2 25 0 6 3 1 5 -13 5 -14 0 -19 -2 -12 -5z"/>
<path d="M1605 860 c-3 -5 0 -10 9 -10 8 0 16 -3 19 -7 2 -5 2 -3 1 4 -2 6 2
14 9 17 7 2 2 5 -10 5 -12 1 -25 -3 -28 -9z"/>
<path d="M1318 853 c7 -3 16 -2 19 1 4 3 -2 6 -13 5 -11 0 -14 -3 -6 -6z"/>
<path d="M1668 853 c7 -3 16 -2 19 1 4 3 -2 6 -13 5 -11 0 -14 -3 -6 -6z"/>
<path d="M1278 843 c7 -3 16 -2 19 1 4 3 -2 6 -13 5 -11 0 -14 -3 -6 -6z"/>
<path d="M1433 832 c0 -12 5 -22 9 -22 11 0 10 12 -2 30 -7 12 -9 10 -7 -8z"/>
<path d="M1471 833 c-1 -24 22 -32 35 -11 5 7 2 9 -9 5 -10 -4 -17 0 -20 11
-3 12 -5 11 -6 -5z"/>
<path d="M1533 834 c-3 -8 -2 -18 2 -22 4 -4 10 -1 13 7 3 10 6 10 12 1 5 -9
9 -8 13 3 4 10 -2 17 -14 20 -12 3 -22 0 -26 -9z"/>
<path d="M1238 833 c7 -3 16 -2 19 1 4 3 -2 6 -13 5 -11 0 -14 -3 -6 -6z"/>
<path d="M1596 825 c-6 -16 19 -33 31 -21 4 3 1 6 -6 6 -7 0 -10 4 -6 9 3 5 1
12 -4 15 -5 3 -12 -1 -15 -9z"/>
<path d="M1748 833 c7 -3 16 -2 19 1 4 3 -2 6 -13 5 -11 0 -14 -3 -6 -6z"/>
<path d="M1317 823 c-11 -10 -8 -33 4 -33 6 0 8 7 5 16 -4 12 -2 15 9 10 8 -3
15 -1 15 4 0 11 -23 13 -33 3z"/>
<path d="M1667 824 c-14 -14 -7 -35 11 -32 9 2 17 10 17 17 0 16 -18 25 -28
15z m23 -14 c0 -5 -4 -10 -10 -10 -5 0 -10 5 -10 10 0 6 5 10 10 10 6 0 10 -4
10 -10z"/>
<path d="M1158 813 c7 -3 16 -2 19 1 4 3 -2 6 -13 5 -11 0 -14 -3 -6 -6z"/>
<path d="M1828 813 c7 -3 16 -2 19 1 4 3 -2 6 -13 5 -11 0 -14 -3 -6 -6z"/>
<path d="M1108 803 c7 -3 16 -2 19 1 4 3 -2 6 -13 5 -11 0 -14 -3 -6 -6z"/>
<path d="M1245 800 c-3 -5 -1 -10 4 -10 6 0 11 5 11 10 0 6 -2 10 -4 10 -3 0
-8 -4 -11 -10z"/>
<path d="M1388 803 c7 -3 16 -2 19 1 4 3 -2 6 -13 5 -11 0 -14 -3 -6 -6z"/>
<path d="M1878 803 c7 -3 16 -2 19 1 4 3 -2 6 -13 5 -11 0 -14 -3 -6 -6z"/>
<path d="M2078 803 c7 -3 16 -2 19 1 4 3 -2 6 -13 5 -11 0 -14 -3 -6 -6z"/>
<path d="M999 789 c25 -5 49 -14 54 -21 6 -9 7 -8 4 4 -3 9 -1 19 6 22 7 2
-15 4 -48 4 l-60 0 44 -9z"/>
<path d="M1200 786 c0 -20 17 -30 23 -14 3 8 9 3 15 -12 6 -14 11 -23 12 -20
6 22 7 39 2 38 -4 -1 -17 3 -29 10 -19 11 -23 10 -23 -2z"/>
<path d="M1475 790 c-3 -5 -1 -10 4 -10 6 0 11 5 11 10 0 6 -2 10 -4 10 -3 0
-8 -4 -11 -10z"/>
<path d="M1776 784 c-4 -9 -3 -20 0 -23 4 -3 9 0 11 7 3 6 9 12 14 12 4 0 5
-7 2 -17 -4 -11 -3 -14 5 -9 17 10 15 33 -4 40 -21 8 -21 8 -28 -10z"/>
<path d="M1958 793 c18 -2 45 -2 60 0 15 2 0 4 -33 4 -33 0 -45 -2 -27 -4z"/>
<path d="M1090 769 c-13 -9 -12 -10 3 -5 11 3 17 0 17 -9 0 -8 5 -15 10 -15 7
0 7 6 0 20 -12 23 -11 23 -30 9z"/>
<path d="M1839 770 c-3 -8 -5 -28 -5 -45 1 -22 6 -31 21 -33 15 -2 17 -1 6 6
-10 7 -11 14 -2 31 7 12 8 21 2 21 -5 0 -11 8 -13 18 -3 14 -5 14 -9 2z"/>
<path d="M1865 770 c-3 -5 -1 -10 4 -10 6 0 11 5 11 10 0 6 -2 10 -4 10 -3 0
-8 -4 -11 -10z"/>
<path d="M1020 751 c0 -15 6 -21 23 -20 17 1 18 2 4 6 -9 2 -15 8 -12 13 3 5
1 11 -5 15 -5 3 -10 -3 -10 -14z"/>
<path d="M1468 763 c17 -2 47 -2 65 0 17 2 3 4 -33 4 -36 0 -50 -2 -32 -4z"/>
<path d="M1687 759 c7 -7 15 -10 18 -7 3 3 -2 9 -12 12 -14 6 -15 5 -6 -5z"/>
<path d="M1910 750 c0 -12 7 -20 18 -20 13 0 14 2 3 9 -7 5 -10 14 -7 20 4 6
2 11 -3 11 -6 0 -11 -9 -11 -20z"/>
<path d="M1388 753 c6 -2 18 -2 25 0 6 3 1 5 -13 5 -14 0 -19 -2 -12 -5z"/>
<path d="M1588 753 c6 -2 18 -2 25 0 6 3 1 5 -13 5 -14 0 -19 -2 -12 -5z"/>
<path d="M1338 743 c7 -3 16 -2 19 1 4 3 -2 6 -13 5 -11 0 -14 -3 -6 -6z"/>
<path d="M1648 743 c7 -3 16 -2 19 1 4 3 -2 6 -13 5 -11 0 -14 -3 -6 -6z"/>
<path d="M1120 719 c0 -5 9 -9 20 -9 11 0 20 2 20 4 0 2 -9 6 -20 9 -11 3 -20
1 -20 -4z"/>
<path d="M1218 713 c7 -3 16 -2 19 1 4 3 -2 6 -13 5 -11 0 -14 -3 -6 -6z"/>
<path d="M1768 713 c7 -3 16 -2 19 1 4 3 -2 6 -13 5 -11 0 -14 -3 -6 -6z"/>
<path d="M1138 693 c6 -2 18 -2 25 0 6 3 1 5 -13 5 -14 0 -19 -2 -12 -5z"/>
<path d="M1245 650 c3 -5 11 -10 16 -10 6 0 7 5 4 10 -3 6 -11 10 -16 10 -6 0
-7 -4 -4 -10z"/>
<path d="M2300 1105 c-7 -9 -8 -15 -2 -15 5 0 12 7 16 15 3 8 4 15 2 15 -2 0
-9 -7 -16 -15z"/>
<path d="M2176 1093 c-6 -14 -5 -15 5 -6 7 7 10 15 7 18 -3 3 -9 -2 -12 -12z"/>
<path d="M2278 1063 c7 -3 16 -2 19 1 4 3 -2 6 -13 5 -11 0 -14 -3 -6 -6z"/>
<path d="M2245 1030 c-13 -6 -15 -9 -5 -9 8 0 22 4 30 9 18 12 2 12 -25 0z"/>
<path d="M2138 1013 c18 -2 45 -2 60 0 15 2 0 4 -33 4 -33 0 -45 -2 -27 -4z"/>
<path d="M2168 933 c7 -3 16 -2 19 1 4 3 -2 6 -13 5 -11 0 -14 -3 -6 -6z"/>
<path d="M2098 923 c12 -2 30 -2 40 0 9 3 -1 5 -23 4 -22 0 -30 -2 -17 -4z"/>
<path d="M1113 2115 c-132 -75 -273 -243 -307 -365 -4 -14 11 11 33 55 71 142
195 267 322 325 24 11 37 20 29 20 -8 0 -43 -16 -77 -35z"/>
<path d="M1839 2130 c144 -66 266 -195 338 -360 18 -41 33 -69 33 -62 0 23
-57 138 -98 199 -23 33 -70 87 -106 120 -63 57 -169 123 -197 123 -8 0 6 -9
30 -20z"/>
<path d="M940 1840 c0 -13 7 -20 20 -20 11 0 20 -4 20 -10 0 -5 -9 -10 -20
-10 -11 0 -20 -7 -20 -15 0 -12 13 -15 59 -15 33 0 66 3 75 6 17 7 22 44 6 44
-5 0 -10 9 -10 20 0 18 -7 20 -65 20 -58 0 -65 -2 -65 -20z m140 -38 c0 -4
-17 -6 -37 -4 -59 5 -63 10 -10 11 26 1 47 -3 47 -7z"/>
<path d="M1200 1835 c0 -13 28 -15 190 -15 162 0 190 2 190 15 0 13 -28 15
-190 15 -162 0 -190 -2 -190 -15z"/>
<path d="M1854 1839 c-110 -11 -175 -72 -196 -186 -21 -113 31 -245 103 -260
17 -3 33 -12 36 -19 4 -11 29 -14 99 -14 79 0 92 2 88 15 -4 8 -10 15 -16 15
-5 0 -6 -4 -3 -10 4 -6 -23 -10 -74 -10 -45 0 -81 4 -81 9 0 5 38 11 84 12 91
4 107 11 88 37 -7 9 -15 24 -18 32 -3 9 -41 28 -85 44 -47 17 -79 34 -79 42 0
20 15 17 100 -20 56 -24 75 -37 73 -50 -1 -13 2 -15 10 -7 7 7 6 16 -6 28 -8
10 -15 23 -15 28 1 6 -34 24 -77 40 -43 17 -80 36 -83 43 -5 17 4 16 95 -20
45 -18 84 -40 87 -48 3 -11 4 -10 5 3 0 10 -6 20 -14 23 -8 4 -15 10 -15 15 0
4 7 6 15 3 11 -5 15 1 15 19 0 14 -7 27 -15 31 -8 3 -20 17 -27 31 -7 15 -20
25 -32 25 -12 1 -32 7 -46 15 -24 14 -23 14 26 15 l52 0 4 37 c6 51 -1 81 -20
85 -10 2 -45 1 -78 -3z m99 -210 c26 -12 37 -29 18 -29 -27 0 -171 64 -171 75
0 14 67 -7 153 -46z m-63 -163 c46 -19 86 -39 88 -45 5 -16 -9 -14 -90 16 -80
29 -101 41 -92 54 7 12 -2 14 94 -25z"/>
<path d="M1243 1798 c-2 -5 -13 -8 -24 -8 -10 0 -19 -7 -19 -15 0 -9 10 -15
26 -15 14 0 23 -4 19 -10 -3 -5 -15 -10 -26 -10 -13 0 -19 -7 -19 -21 0 -20 4
-20 200 -17 204 3 242 10 211 41 -10 10 -11 9 -6 -5 5 -13 2 -18 -10 -18 -10
0 -15 5 -12 13 3 9 -33 12 -162 11 l-166 0 160 5 c160 6 160 6 159 29 -1 20 3
23 23 19 13 -2 21 -2 18 1 -8 8 -366 8 -372 0z"/>
<path d="M963 1746 c-13 -6 -23 -18 -23 -28 0 -9 10 -19 23 -21 l22 -4 -22 -8
c-26 -8 -32 -45 -8 -45 8 0 15 -5 15 -10 0 -6 -7 -13 -15 -16 -21 -9 -22 -214
-1 -214 8 0 17 -6 19 -12 4 -10 6 -10 6 0 1 7 16 12 41 12 l40 0 2 88 2 87 6
-100 6 -100 2 102 c1 73 -2 103 -10 107 -10 5 -10 7 0 12 6 3 12 14 12 25 0
10 -6 19 -12 19 -8 1 -6 6 5 14 21 16 23 46 2 46 -8 0 -15 5 -15 10 0 6 7 10
15 10 8 0 15 9 15 20 0 18 -6 20 -52 19 -29 -1 -63 -6 -75 -13z m117 -5 c0 -8
-90 -3 -99 5 -2 2 19 4 47 4 29 0 52 -4 52 -9z m0 -60 c0 -8 -79 -3 -89 5 -2
2 17 4 42 4 26 0 47 -4 47 -9z m-10 -61 c0 -5 -20 -10 -45 -10 -25 0 -45 5
-45 10 0 6 20 10 45 10 25 0 45 -4 45 -10z"/>
<path d="M781 1676 c-6 -25 -11 -53 -10 -63 0 -10 7 9 15 41 8 33 13 61 10 63
-2 2 -9 -16 -15 -41z"/>
<path d="M1965 1690 c-19 -8 -19 -9 2 -9 12 -1 25 4 28 9 7 12 -2 12 -30 0z"/>
<path d="M1245 1680 c-3 -5 -15 -10 -26 -10 -10 0 -19 -7 -19 -15 0 -13 29
-15 204 -15 139 0 207 4 212 11 4 7 0 9 -14 5 -13 -5 -22 -1 -26 10 -5 13 -2
15 20 10 17 -5 23 -3 19 4 -8 13 -361 14 -370 0z"/>
<path d="M2211 1674 c0 -11 3 -14 6 -6 3 7 2 16 -1 19 -3 4 -6 -2 -5 -13z"/>
<path d="M2222 1630 c0 -14 2 -19 5 -12 2 6 2 18 0 25 -3 6 -5 1 -5 -13z"/>
<path d="M1600 1620 c0 -5 5 -10 11 -10 5 0 7 5 4 10 -3 6 -8 10 -11 10 -2 0
-4 -4 -4 -10z"/>
<path d="M1223 1613 c-14 -3 -23 -12 -23 -24 0 -17 5 -18 59 -13 39 4 61 3 65
-5 5 -7 -7 -11 -39 -11 -39 0 -46 -3 -43 -17 2 -13 15 -19 46 -21 l42 -3 0
-60 c0 -52 2 -59 20 -59 11 0 20 -7 20 -15 0 -12 13 -15 55 -15 l55 0 0 70 0
69 68 3 c59 3 67 5 67 23 0 18 -8 20 -82 23 -46 2 -83 7 -83 13 0 5 32 9 76 8
49 -1 80 3 87 11 9 10 7 11 -10 5 -17 -5 -23 -2 -23 9 0 14 -21 16 -167 15
-93 -1 -178 -4 -190 -6z m107 -73 c0 -5 -18 -10 -40 -10 -22 0 -40 5 -40 10 0
6 18 10 40 10 22 0 40 -4 40 -10z m280 -5 c0 -12 -14 -15 -70 -15 l-70 0 0
-70 0 -70 -45 0 c-25 0 -45 5 -45 10 0 6 16 10 35 10 l35 0 0 75 0 75 80 0
c64 0 80 -3 80 -15z"/>
<path d="M764 1500 c0 -52 1 -74 3 -47 2 26 2 68 0 95 -2 26 -3 4 -3 -48z"/>
<path d="M2234 1505 c0 -49 1 -71 3 -48 2 23 2 64 0 90 -2 26 -3 8 -3 -42z"/>
<path d="M1090 1453 c0 -57 35 -85 97 -81 48 3 48 3 51 41 3 32 0 39 -17 44
-12 3 -21 12 -21 19 0 10 -15 14 -55 14 l-55 0 0 -37z m138 -35 c-3 -32 -5
-33 -50 -36 -29 -2 -48 1 -48 7 0 6 16 11 35 11 31 0 35 3 35 25 0 16 6 25 16
25 11 0 14 -8 12 -32z"/>
<path d="M1490 1440 c0 -38 4 -50 15 -50 8 0 15 -4 15 -10 0 -5 25 -10 55 -10
l55 0 0 45 c0 33 -4 45 -15 45 -8 0 -15 7 -15 15 0 12 -13 15 -55 15 l-55 0 0
-50z m130 -25 l0 -35 -47 2 c-44 1 -45 2 -10 5 33 4 37 7 37 34 0 16 5 29 10
29 6 0 10 -16 10 -35z"/>
<path d="M2000 1431 c0 -30 4 -40 19 -44 34 -9 71 4 71 24 0 11 7 19 15 19 10
0 15 -10 15 -29 0 -28 -3 -30 -42 -34 l-43 -4 48 -1 47 -2 0 40 c0 33 -3 40
-20 40 -11 0 -20 7 -20 15 0 11 -12 15 -45 15 l-45 0 0 -39z"/>
<path d="M2222 1375 c0 -16 2 -22 5 -12 2 9 2 23 0 30 -3 6 -5 -1 -5 -18z"/>
<path d="M2241 1354 c-2 -35 -32 -114 -45 -114 -13 0 -70 -109 -62 -118 3 -2
10 8 16 24 6 16 23 39 38 52 15 13 19 20 10 16 -35 -12 -17 6 30 31 26 15 39
24 30 21 -23 -7 -24 18 -3 58 17 33 19 39 6 32 -5 -4 -12 0 -14 6 -3 7 -6 4
-6 -8z"/>
<path d="M710 1336 c0 -8 4 -17 9 -20 5 -4 7 3 4 14 -6 23 -13 26 -13 6z"/>
<path d="M2277 1331 c-4 -17 -3 -21 5 -13 5 5 8 16 6 23 -3 8 -7 3 -11 -10z"/>
<path d="M2211 1324 c0 -11 3 -14 6 -6 3 7 2 16 -1 19 -3 4 -6 -2 -5 -13z"/>
<path d="M725 1240 c27 -12 43 -12 25 0 -8 5 -22 9 -30 9 -10 0 -8 -3 5 -9z"/>
<path d="M2250 1240 c-18 -12 -2 -12 25 0 13 6 15 9 5 9 -8 0 -22 -4 -30 -9z"/>
<path d="M698 1173 c7 -3 16 -2 19 1 4 3 -2 6 -13 5 -11 0 -14 -3 -6 -6z"/>
<path d="M2288 1173 c7 -3 16 -2 19 1 4 3 -2 6 -13 5 -11 0 -14 -3 -6 -6z"/>
<path d="M778 1163 c7 -3 16 -2 19 1 4 3 -2 6 -13 5 -11 0 -14 -3 -6 -6z"/>
<path d="M2183 1160 c-35 -14 -27 -20 10 -8 17 6 34 13 36 14 8 7 -24 3 -46
-6z"/>
<path d="M810 1156 c0 -2 7 -7 16 -10 8 -3 12 -2 9 4 -6 10 -25 14 -25 6z"/>
<path d="M687 2453 c-11 -10 -8 -48 4 -60 9 -9 18 -8 35 4 22 14 24 14 30 -2
5 -11 -2 -26 -20 -43 -21 -22 -26 -23 -26 -9 0 33 -46 25 -84 -14 -15 -17 -31
-27 -35 -24 -3 4 2 12 12 19 22 17 22 26 -3 26 -15 0 -20 -7 -20 -25 0 -14 7
-28 15 -31 8 -4 15 -13 15 -20 0 -23 46 -40 65 -24 19 16 20 46 1 53 -20 8
-38 -13 -25 -30 9 -10 8 -13 -5 -13 -25 0 -19 34 10 63 24 24 52 29 39 6 -11
-17 25 -21 49 -5 31 20 40 49 26 77 -10 18 -18 20 -48 16 -36 -6 -36 -5 -14
10 12 8 22 19 22 24 0 10 -34 12 -43 2z"/>
<path d="M2370 2345 c0 -8 -6 -14 -12 -12 -7 1 -13 -7 -13 -18 0 -13 6 -20 18
-19 19 2 23 -11 5 -22 -6 -4 -19 2 -29 14 -21 27 -29 28 -29 4 0 -39 40 -54
71 -26 16 15 19 14 34 -15 14 -28 5 -46 -10 -21 -11 18 -25 10 -25 -14 0 -34
16 -41 45 -22 34 22 31 52 -6 87 -18 17 -29 36 -26 46 3 14 6 13 15 -9 14 -34
36 -38 27 -5 -12 39 -65 66 -65 32z"/>
<path d="M775 2328 c-41 -23 -49 -72 -13 -84 22 -7 53 20 42 37 -11 18 -34 9
-34 -13 0 -18 -2 -20 -12 -9 -18 18 33 61 73 61 16 0 29 5 29 10 0 14 -60 12
-85 -2z"/>
<path d="M2455 2261 c9 -18 20 -29 25 -26 14 9 -5 50 -24 53 -16 4 -16 2 -1
-27z"/>
<path d="M2504 2099 c-3 -6 -1 -16 5 -22 8 -8 11 -5 11 11 0 24 -5 28 -16 11z"/>
<path d="M381 2054 c-26 -33 -29 -102 -6 -111 9 -3 22 3 31 13 14 18 15 17 9
-10 -6 -27 -5 -28 22 -22 41 11 48 22 34 52 -14 32 -6 64 17 64 12 0 13 -3 4
-12 -17 -17 -15 -39 2 -32 21 8 26 30 12 49 -10 14 -16 15 -34 6 -17 -9 -22
-21 -22 -51 0 -22 -4 -40 -10 -40 -5 0 -10 7 -10 15 0 18 -21 20 -38 3 -9 -9
-12 -8 -12 8 0 23 36 84 50 84 6 0 5 -8 -2 -20 -7 -10 -9 -23 -5 -27 10 -9 27
16 27 40 0 27 -45 21 -69 -9z"/>
<path d="M2600 1963 c-1 -26 -2 -27 -15 -9 -20 27 -35 11 -35 -38 0 -28 6 -48
18 -59 21 -19 72 -33 72 -19 0 5 -10 12 -23 16 -21 5 -47 42 -47 67 0 6 10 9
23 7 16 -2 23 3 25 20 4 29 22 18 22 -13 0 -55 38 -97 67 -74 15 14 14 57 -2
49 -5 -3 -9 -13 -8 -22 2 -10 -4 -18 -12 -18 -11 0 -15 12 -15 44 0 35 -5 47
-25 60 -34 23 -45 20 -45 -11z"/>
<path d="M252 1886 c-35 -40 -49 -90 -32 -112 18 -21 36 -2 44 45 3 21 13 44
21 51 16 13 21 50 6 50 -5 0 -22 -15 -39 -34z m5 -56 c-6 -22 -15 -40 -19 -40
-11 0 -10 5 6 45 20 47 26 44 13 -5z"/>
<path d="M316 1871 c-9 -10 -14 -25 -10 -35 4 -10 -1 -25 -11 -36 -15 -17 -16
-24 -7 -45 12 -27 37 -33 45 -12 4 7 6 6 6 -4 2 -29 30 -30 57 -4 21 22 25 33
22 78 -3 48 -5 52 -28 52 -21 0 -28 -10 -51 -64 -16 -38 -29 -59 -34 -51 -4 6
-2 17 4 23 6 6 11 22 11 34 0 13 7 34 16 47 19 29 3 43 -20 17z m84 -41 c0
-28 -24 -100 -33 -100 -2 0 -2 12 1 28 5 24 4 26 -11 13 -23 -19 -22 0 3 49
24 48 40 51 40 10z"/>
<path d="M2680 1824 c0 -6 5 -15 12 -22 19 -19 -7 -66 -32 -59 -11 3 -20 1
-20 -4 0 -5 -5 -9 -10 -9 -6 0 -5 8 2 20 7 10 9 22 5 26 -11 11 -37 -16 -37
-39 0 -18 4 -19 52 -13 29 4 56 13 60 19 14 22 8 54 -12 72 -11 10 -20 14 -20
9z"/>
<path d="M260 1555 l-44 -45 49 -50 50 -50 49 50 50 50 -44 45 c-24 25 -49 45
-55 45 -6 0 -31 -20 -55 -45z m63 16 c-2 -6 3 -10 10 -8 6 1 12 -5 12 -13 0
-24 -59 -20 -63 4 -3 14 0 17 11 13 12 -4 14 -2 10 10 -4 11 -2 14 8 11 8 -3
13 -11 12 -17z m-38 -67 c0 -19 -5 -29 -15 -29 -8 0 -14 6 -12 13 1 6 -3 11
-9 10 -6 -2 -14 3 -16 10 -3 6 2 12 11 12 9 0 16 5 16 11 0 6 6 9 13 7 6 -3
12 -18 12 -34z m94 19 c19 -16 19 -39 0 -27 -5 3 -8 0 -7 -8 2 -7 -4 -13 -12
-13 -16 0 -25 28 -16 51 7 18 11 18 35 -3z m-51 -14 c-2 -6 -8 -10 -13 -10 -5
0 -11 4 -13 10 -2 6 4 11 13 11 9 0 15 -5 13 -11z m13 -36 c8 -8 6 -17 -8 -32
l-19 -20 -18 20 c-29 34 13 64 45 32z"/>
<path d="M2630 1555 l-44 -45 50 -50 49 -50 48 48 48 49 -47 47 c-26 25 -51
46 -54 46 -3 0 -26 -20 -50 -45z m63 16 c-2 -6 3 -10 10 -8 6 1 12 -5 12 -13
0 -24 -59 -20 -63 4 -3 14 0 17 11 13 12 -4 14 -2 10 10 -4 11 -2 14 8 11 8
-3 13 -11 12 -17z m-38 -66 c0 -20 -5 -30 -15 -30 -8 0 -14 6 -12 13 1 6 -3
11 -9 10 -6 -2 -14 3 -16 10 -3 6 3 12 12 12 9 0 13 5 9 11 -4 7 1 10 12 7 14
-2 19 -12 19 -33z m94 18 c19 -16 19 -39 0 -27 -5 3 -8 0 -7 -8 2 -7 -4 -13
-12 -13 -16 0 -25 28 -16 51 7 18 11 18 35 -3z m-51 -14 c-2 -6 -8 -10 -13
-10 -5 0 -11 4 -13 10 -2 6 4 11 13 11 9 0 15 -5 13 -11z m10 -32 c17 -11 15
-27 -4 -27 -8 0 -13 -4 -9 -9 12 -20 -12 -19 -29 0 -27 32 4 59 42 36z"/>
<path d="M2574 1285 c-3 -20 -5 -37 -3 -39 2 -2 32 -10 66 -18 60 -15 63 -15
68 3 3 11 8 28 11 39 4 14 1 20 -10 20 -8 0 -16 -10 -18 -22 -2 -13 -11 -24
-22 -26 -16 -3 -18 1 -14 27 3 21 0 31 -9 31 -7 0 -13 -8 -13 -18 0 -24 -8
-32 -26 -25 -9 3 -11 14 -7 34 3 18 1 29 -5 29 -6 0 -14 -16 -18 -35z"/>
<path d="M343 1291 c-62 -16 -91 -31 -59 -31 26 0 110 22 120 31 18 16 1 16
-61 0z"/>
<path d="M348 1248 c-32 -11 -58 -24 -58 -30 0 -6 7 -7 16 -4 9 3 28 9 42 12
25 6 24 4 -11 -26 -21 -18 -35 -36 -30 -41 11 -11 125 23 131 39 2 8 -8 8 -37
-3 -48 -17 -53 -7 -11 23 17 13 30 29 30 37 0 18 -1 18 -72 -7z"/>
<path d="M2556 1204 c-23 -23 -19 -50 10 -73 29 -23 83 -28 102 -9 22 22 14
64 -15 77 -21 10 -28 9 -34 -1 -11 -17 -11 -38 0 -38 5 0 11 6 14 13 3 9 8 9
16 1 17 -16 2 -44 -24 -44 -13 0 -33 9 -46 19 -23 18 -23 20 -6 38 29 33 14
48 -17 17z"/>
<path d="M402 1148 c-7 -7 -12 -25 -12 -40 0 -18 -5 -28 -14 -28 -21 0 -30 19
-16 35 6 8 7 16 2 19 -16 10 -35 -22 -28 -49 13 -52 93 -21 84 33 -2 10 3 17
12 17 10 0 14 -8 12 -22 -4 -29 14 -30 23 -3 12 39 -35 66 -63 38z"/>
<path d="M2506 1089 c-25 -36 -20 -43 41 -70 32 -13 60 -25 64 -27 4 -2 12 11
17 28 9 26 8 34 -11 55 -13 15 -37 28 -58 31 -30 5 -39 2 -53 -17z m82 -15
c19 -13 32 -54 17 -54 -19 0 -85 35 -85 44 0 30 33 35 68 10z"/>
<path d="M467 1084 c-3 -3 -3 -12 0 -19 3 -9 -14 -23 -47 -40 -28 -14 -48 -30
-45 -35 4 -6 28 1 58 16 33 17 53 22 55 15 2 -6 10 -11 18 -11 12 0 10 8 -6
40 -21 42 -23 44 -33 34z"/>
<path d="M2470 1002 c-45 -36 3 -102 74 -102 49 0 58 63 13 93 -40 26 -63 28
-87 9z m73 -26 c21 -16 22 -45 1 -53 -31 -11 -84 33 -68 58 8 13 46 10 67 -5z"/>
<path d="M458 968 c-32 -17 -55 -35 -52 -40 6 -10 124 50 124 63 0 14 -11 10
-72 -23z"/>
<path d="M525 951 c4 -15 -5 -25 -40 -45 -25 -15 -45 -31 -45 -36 0 -15 6 -13
57 19 35 22 51 27 60 19 22 -18 25 -3 6 31 -20 34 -48 43 -38 12z"/>
<path d="M2402 897 c-12 -13 -22 -26 -22 -30 0 -4 25 -24 56 -44 l56 -37 19
24 c10 14 19 30 19 37 0 15 -28 43 -44 43 -8 0 -19 7 -26 15 -17 21 -33 19
-58 -8z m48 -22 c0 -19 -13 -25 -30 -15 -11 7 -11 11 -1 24 15 17 31 13 31 -9z
m50 -24 c0 -24 -18 -37 -31 -24 -13 13 -1 43 17 43 8 0 14 -9 14 -19z"/>
<path d="M531 852 c-45 -39 -51 -65 -19 -85 19 -12 44 -2 94 38 46 37 21 40
-30 3 -39 -27 -49 -30 -56 -18 -10 17 9 43 52 68 16 9 28 20 28 24 0 18 -27 6
-69 -30z"/>
<path d="M2356 835 c-3 -8 6 -28 20 -45 29 -34 26 -37 -18 -14 -22 11 -33 13
-41 5 -9 -9 0 -22 33 -51 25 -21 52 -39 60 -39 9 0 1 12 -20 29 -39 34 -36 37
15 13 49 -23 55 -9 14 34 -35 37 -23 37 18 0 13 -11 26 -17 30 -13 8 7 -18 32
-78 76 -23 17 -28 18 -33 5z"/>
<path d="M636 812 c-3 -6 -3 -17 0 -25 3 -10 -9 -27 -35 -47 -22 -18 -38 -37
-35 -42 3 -5 26 7 50 27 35 29 48 34 58 25 27 -21 24 5 -4 38 -15 19 -31 29
-34 24z"/>
<path d="M2260 718 c0 -17 69 -136 71 -123 1 6 2 21 3 35 1 21 6 25 29 23 41
-3 33 12 -28 46 -60 34 -75 38 -75 19z m64 -49 c-4 -6 -11 -6 -20 2 -21 17
-17 31 6 19 11 -6 18 -15 14 -21z"/>
<path d="M687 669 c-44 -50 -45 -54 -30 -71 24 -26 61 -22 94 11 35 36 37 60
5 90 l-23 22 -46 -52z m66 -3 c8 -20 -30 -66 -53 -66 -32 0 -33 20 -4 51 31
32 49 37 57 15z"/>
<path d="M2179 649 c-9 -18 -8 -28 6 -55 33 -62 105 -72 105 -13 0 16 -4 29
-10 29 -5 0 -10 -9 -10 -19 0 -42 -42 -36 -65 9 -16 30 -4 53 23 43 10 -4 13
-1 10 8 -8 24 -45 23 -59 -2z"/>
<path d="M771 599 c-23 -29 -41 -55 -41 -60 0 -12 56 -49 64 -42 3 4 -4 17
-16 30 -27 29 -13 52 20 32 12 -7 25 -10 29 -5 4 4 0 12 -10 17 -9 6 -17 17
-17 24 0 17 26 20 35 5 7 -12 35 -14 34 -2 0 4 -13 17 -29 30 l-28 22 -41 -51z"/>
<path d="M2090 586 c0 -3 14 -25 31 -50 17 -25 27 -50 24 -56 -13 -21 -33 -9
-63 36 -16 25 -32 42 -35 37 -7 -11 46 -93 68 -106 18 -9 55 16 55 38 0 17
-58 105 -70 105 -5 0 -10 -2 -10 -4z"/>
<path d="M907 563 c-4 -3 -2 -12 4 -19 8 -10 5 -25 -15 -58 -28 -47 -30 -56
-18 -56 4 0 20 20 36 45 15 25 34 44 41 43 8 -2 15 2 16 7 3 13 -55 47 -64 38z"/>
<path d="M960 460 l-30 -60 35 -17 c19 -9 38 -13 42 -8 5 4 3 10 -3 12 -29 10
-43 28 -34 43 8 12 13 13 29 3 15 -10 22 -10 27 -1 4 7 3 13 -2 15 -28 10 -38
23 -27 34 8 8 16 8 31 0 25 -14 32 -14 32 -1 0 8 -51 40 -64 40 -3 0 -19 -27
-36 -60z"/>
<path d="M1966 507 c-17 -13 -16 -16 14 -70 17 -31 35 -57 39 -57 3 0 17 7 29
16 27 19 28 49 2 92 -21 35 -53 42 -84 19z m70 -32 c18 -28 15 -59 -7 -63 -16
-3 -53 63 -44 79 11 17 34 9 51 -16z"/>
<path d="M1060 438 c-33 -54 -22 -108 21 -108 19 0 45 27 36 37 -4 3 -12 1
-20 -5 -22 -18 -40 2 -32 36 9 43 33 62 50 39 11 -16 35 -24 35 -11 0 3 -5 14
-10 25 -17 31 -57 24 -80 -13z"/>
<path d="M1853 460 c-13 -5 -23 -14 -23 -19 0 -12 40 -121 44 -121 20 0 66 25
66 36 0 11 -4 12 -19 4 -27 -14 -38 -13 -45 5 -4 10 3 20 19 27 35 16 31 29
-6 26 -39 -4 -50 17 -14 26 14 4 25 11 25 16 0 12 -17 12 -47 0z"/>
<path d="M1156 386 c-9 -30 -16 -59 -16 -65 0 -21 18 -11 24 14 4 16 13 25 27
25 17 0 19 -4 13 -35 -11 -58 11 -40 29 25 19 68 21 80 8 80 -5 0 -12 -11 -15
-25 -4 -17 -13 -25 -27 -25 -18 0 -20 4 -14 30 12 53 -13 33 -29 -24z"/>
<path d="M1790 435 c0 -20 35 -125 42 -125 4 0 8 5 8 12 0 22 -34 118 -42 118
-4 0 -8 -2 -8 -5z"/>
<path d="M1712 414 c-29 -20 -30 -82 -2 -112 25 -27 41 -28 70 -4 18 14 20 21
11 44 -7 20 -15 25 -30 21 -24 -6 -28 -23 -6 -23 19 0 20 -26 1 -33 -22 -8
-48 27 -44 60 3 24 7 28 31 26 31 -2 36 12 9 26 -14 7 -25 6 -40 -5z"/>
<path d="M1261 363 c-13 -68 -14 -83 -2 -83 5 0 12 19 16 43 l8 42 11 -44 c13
-50 31 -63 39 -29 15 63 19 121 8 114 -6 -4 -11 -17 -11 -29 0 -48 -17 -49
-29 -3 -6 25 -15 46 -20 46 -4 0 -13 -26 -20 -57z"/>
<path d="M1590 390 c-51 -51 11 -165 65 -120 23 19 20 95 -5 120 -11 11 -24
20 -30 20 -5 0 -19 -9 -30 -20z m58 -56 c4 -51 -19 -66 -44 -29 -23 34 -11 77
19 73 18 -2 23 -10 25 -44z"/>
<path d="M1381 387 c-17 -22 -23 -70 -12 -99 8 -22 17 -28 40 -28 20 0 34 7
41 19 14 27 13 94 -2 109 -16 16 -53 15 -67 -1z m57 -55 c3 -46 -16 -65 -43
-42 -18 15 -19 29 -5 65 16 42 44 29 48 -23z"/>
<path d="M1484 353 c3 -21 6 -50 6 -65 0 -25 4 -28 35 -28 19 0 35 5 35 10 0
6 -11 10 -24 10 -26 0 -36 21 -36 78 0 17 -5 32 -11 32 -8 0 -10 -13 -5 -37z"/>
</g>
</svg>
